PathFileType	4	(X/Y/Z)	c:\Git\powerlifing_model_clean\simulations\HC835B\Session1\HC835B_OGR_0008\marker_experimental.trc
DataRate	CameraRate	NumFrames	NumMarkers	Units	OrigDataRate	OrigDataStartFrame	OrigNumFrames
240.000000	240.000000	4	38	mm	240.000000	54	217
Frame#	Time	RPSI			LPSI			RASI			LASI			RTH1			RTH2			RTH3			RTH4			RSK1			RSK2			RSK3			RSK4			RCAL1			RCAL2			RCAL3			RST			RPT			RTN			RFMB			RSMB			RVMB			RFMH			RSMH			RVMH			RPM			LTH1			LTH2			LTH3			LTH4			LSK1			LSK2			LSK3			LSK4			LCAL1			LCAL2			LCAL3			LFMH			LVMH			
		X1	Y1	Z1	X2	Y2	Z2	X3	Y3	Z3	X4	Y4	Z4	X5	Y5	Z5	X6	Y6	Z6	X7	Y7	Z7	X8	Y8	Z8	X9	Y9	Z9	X10	Y10	Z10	X11	Y11	Z11	X12	Y12	Z12	X13	Y13	Z13	X14	Y14	Z14	X15	Y15	Z15	X16	Y16	Z16	X17	Y17	Z17	X18	Y18	Z18	X19	Y19	Z19	X20	Y20	Z20	X21	Y21	Z21	X22	Y22	Z22	X23	Y23	Z23	X24	Y24	Z24	X25	Y25	Z25	X26	Y26	Z26	X27	Y27	Z27	X28	Y28	Z28	X29	Y29	Z29	X30	Y30	Z30	X31	Y31	Z31	X32	Y32	Z32	X33	Y33	Z33	X34	Y34	Z34	X35	Y35	Z35	X36	Y36	Z36	X37	Y37	Z37	X38	Y38	Z38	

55	0.225	479.9026489257814	1137.579345703125	-458.8005676269532	372.2979736328126	1130.727294921875	-455.0329589843751	543.8161010742189	1056.832641601563	-659.7804565429689	294.4843444824219	1054.106689453125	-649.1825561523439	593.6724243164064	791.8791503906252	-550.2372436523439	586.0973510742189	774.2934570312502	-607.9678344726564	576.4434204101564	710.1124877929689	-563.8848266601564	557.7575073242189	694.2927246093751	-617.1660156250001	501.9399719238282	311.8497619628907	-374.7046813964844	497.251434326172	275.3967895507813	-424.4805297851564	491.1838989257814	254.5116729736329	-367.6631164550782	476.1395263671876	221.5194244384766	-415.503387451172	423.2716064453126	127.6232070922852	-250.8328094482422	387.7804565429689	93.69483184814455	-253.3281555175782	451.4402160644532	88.90674591064455	-245.5817413330079	377.8663635253907	97.5121994018555	-323.0477294921876	479.1100463867189	88.31899261474611	-304.5184326171876	392.8989868164064	103.686637878418	-381.6322631835938	398.5154113769532	80.90271759033205	-409.230438232422	448.8155517578126	98.84574890136722	-419.2947692871095	489.4399414062501	54.79589462280275	-342.0912475585938	396.7439880371095	47.14465332031251	-459.0853881835939	452.837860107422	53.12741470336915	-470.4112548828126	510.7190551757814	37.13104629516602	-414.8733825683595	442.642059326172	38.29066467285157	-527.3149414062501	216.2905731201172	802.235290527344	-646.2055664062501	217.9373474121094	816.814147949219	-705.5079956054689	213.434555053711	735.8469238281251	-699.8480224609376	231.0010223388672	749.3203735351564	-757.2698974609376	264.7580566406251	523.7019653320314	-477.6678771972657	259.2037658691407	469.994354248047	-480.9920349121095	270.3135986328126	486.7347106933595	-434.8928833007814	280.7567443847657	432.1234741210939	-443.2637634277345	341.0355224609376	483.3348693847657	-284.1381530761719	315.8168029785157	467.6469116210939	-246.5807800292969	374.0531311035157	464.7819824218751	-254.9151000976563	371.0549926757813	264.8339538574219	-348.8591613769532	272.0149230957032	285.2632141113282	-295.3988647460938	
56	0.2291666666666667	480.7549438476564	1140.69580078125	-473.0472412109376	372.7195129394532	1134.258056640625	-468.4937744140626	542.5916137695314	1059.932495117188	-673.5666503906251	294.6384582519532	1057.018920898438	-662.6526489257814	592.7725830078126	795.1528930664065	-558.9414672851564	585.0145874023439	776.4954833984377	-616.3330688476564	575.6921997070314	713.1609497070314	-571.1080932617189	556.6837768554689	696.3818359375001	-623.9782104492189	502.7892456054689	315.8627319335938	-377.6265563964844	498.1817932128907	279.0229492187501	-427.2877502441407	492.2340087890626	258.4782714843751	-370.2083740234376	477.290496826172	225.1938934326172	-418.0818786621095	424.9171142578126	132.4834594726563	-253.2586364746094	389.0344543457032	98.90422058105472	-255.2942352294922	452.5878906250001	93.49845123291017	-247.3671112060547	379.2100524902344	101.4705810546875	-324.8659973144532	480.5332641601564	91.55014801025392	-306.2300720214844	394.566375732422	106.3197860717774	-383.2595214843751	399.470428466797	82.56063842773439	-410.4066772460939	450.0799865722657	99.81171417236331	-421.2268676757814	490.1898193359376	56.85450363159181	-343.2044372558594	397.0352172851564	47.36690902709962	-459.1999511718751	453.1587219238282	52.77779006958009	-470.9355773925782	511.1270141601564	37.26576614379884	-415.093719482422	442.5679626464845	38.14141464233399	-527.2686157226564	216.5003967285157	806.2940063476565	-661.6668701171876	218.4671173095704	821.6594848632815	-720.8453369140626	214.1827697753907	740.5049438476564	-716.2106933593751	232.0086212158204	754.6690063476564	-773.317077636719	265.1996765136719	519.8155517578126	-497.1406555175782	259.7752990722657	466.2433166503907	-502.2046203613282	270.6029357910157	481.5744018554689	-455.5721740722657	281.0683288574219	426.8812255859376	-465.7807617187501	340.8450012207032	473.1550903320314	-304.3125915527344	315.3079833984376	455.980194091797	-267.6070861816407	373.7229309082032	453.5079040527345	-275.6246337890626	371.2843627929688	257.5172729492188	-377.8623352050782	271.7469787597657	275.7124023437501	-323.5066223144532	
57	0.2333333333333333	481.4737548828126	1143.877563476563	-487.297088623047	373.0610961914063	1137.88818359375	-482.0234375000001	541.7423706054689	1062.720336914063	-687.1450195312501	294.7036437988282	1060.13427734375	-676.3839111328126	592.0456542968751	798.712097167969	-567.9356079101564	584.0050048828126	779.0064697265627	-624.9788208007814	575.0809936523439	716.3833618164064	-578.6600341796876	555.6331787109376	698.7323608398439	-631.0776977539064	503.640350341797	319.9580688476563	-380.6030578613282	499.1572265625001	283.0059509277344	-430.2583923339845	493.3030090332032	262.6358337402344	-373.1105346679688	478.6153869628907	229.1607666015626	-420.8692321777345	426.4876098632814	137.5907287597657	-256.0705261230469	390.1079406738282	104.5029373168946	-257.4345092773438	453.6987609863282	98.3871765136719	-249.4638214111329	380.6455383300782	105.6199111938477	-327.0655822753907	481.7984313964845	94.8922576904297	-308.1644287109376	395.9703674316407	109.0533294677735	-385.5298156738282	400.4775390625001	84.54129028320314	-412.1297912597657	451.2192993164064	100.8745422363282	-423.0642089843751	490.7458801269532	58.98971176147462	-344.5107116699219	397.2130737304689	47.53049087524415	-459.353240966797	453.4305114746095	52.40623474121095	-471.5632324218751	511.3741455078126	37.46892929077149	-415.3489379882814	442.6505126953126	38.26647186279298	-527.3776245117189	216.579086303711	810.4645996093752	-677.1836547851564	218.7919006347657	826.3658447265627	-736.1635742187501	214.9027099609376	745.1741333007814	-732.2867431640626	232.9881286621094	759.9929199218751	-789.193786621094	265.5679931640626	515.7927246093751	-516.6301879882814	260.4356384277344	462.5111694335939	-523.4860839843751	270.9485778808594	476.1273498535157	-476.276336669922	281.8774719238282	421.5874633789064	-488.3440551757814	340.6328125000001	462.5931396484376	-324.7840881347657	314.8595581054688	444.1566772460939	-288.8819885253907	373.2001037597657	441.7662658691407	-296.6566772460938	370.7485656738282	249.4680633544922	-405.8356018066407	271.5250854492188	266.1317749023438	-352.1358337402344	
58	0.2375	482.0786743164064	1147.087524414063	-501.5316772460939	373.2494506835938	1141.49462890625	-495.6621704101564	540.8576660156251	1065.544555664063	-700.6575927734376	294.7033996582032	1063.038330078125	-689.8319091796876	591.4474487304689	802.4121093750002	-577.2522583007814	582.9875488281251	781.7634277343752	-633.9355468750001	574.5452270507814	719.8648681640626	-586.5560913085939	554.6806640625001	701.4801635742189	-638.5255737304689	504.6035766601564	324.3134460449219	-383.8699340820313	500.388397216797	287.3492126464844	-433.3119201660157	494.4478759765626	266.9870605468751	-376.2090454101563	480.112518310547	233.2259368896485	-423.8949279785157	428.0162658691407	142.9968719482422	-259.2604980468751	391.2032470703126	110.2411346435547	-259.8634033203126	454.7476501464845	103.6201477050782	-251.8733673095704	381.4535522460938	110.2139129638672	-329.1309204101563	482.7604980468751	98.43530273437503	-310.3275146484376	397.4420471191407	112.0810012817383	-388.217010498047	401.198699951172	86.67205810546876	-414.0179748535157	452.0872497558595	101.426986694336	-424.5182189941407	491.2868652343751	61.34309387207033	-345.9498901367188	397.3752441406251	47.78784942626954	-459.4692687988282	453.7272949218751	52.06575012207033	-472.2237548828126	511.5341186523439	37.66612625122071	-415.6472473144532	442.6836547851564	38.26871871948243	-527.4161987304689	216.5523223876954	814.7882080078127	-692.7863159179689	219.1146697998047	830.9914550781252	-751.4998168945314	215.5644073486329	749.8713378906251	-748.3624267578126	233.9803466796876	765.1911621093751	-804.9755859375002	266.0464172363282	511.5279846191407	-535.9808349609376	261.0576171875001	458.6746215820314	-544.6483764648439	271.2261352539063	470.4922180175782	-497.1458129882814	282.6465148925782	416.6893005371095	-510.9700012207032	340.3514709472657	451.7103881835939	-345.5025634765626	314.3965148925782	431.9890136718751	-310.5151977539063	372.8799743652344	429.976287841797	-317.9606018066407	370.7772521972657	241.7238922119141	-434.0816955566407	271.3853454589844	256.4730529785157	-380.8272399902344	
